<svg width="140" height="140" viewBox="0 0 140 140" fill="none" xmlns="http://www.w3.org/2000/svg">
<path d="M140 70C140 108.66 108.66 140 70 140C31.3401 140 0 108.66 0 70C0 31.3401 31.3401 0 70 0C108.66 0 140 31.3401 140 70Z" fill="white"/>
<path fill-rule="evenodd" clip-rule="evenodd" d="M70 136C106.451 136 136 106.451 136 70C136 33.5492 106.451 4 70 4C33.5492 4 4 33.5492 4 70C4 106.451 33.5492 136 70 136ZM70 140C108.66 140 140 108.66 140 70C140 31.3401 108.66 0 70 0C31.3401 0 0 31.3401 0 70C0 108.66 31.3401 140 70 140Z" fill="black"/>
<path d="M46 59C46 63.4183 42.4183 67 38 67C33.5817 67 30 63.4183 30 59C30 54.5817 33.5817 51 38 51C42.4183 51 46 54.5817 46 59Z" fill="black"/>
<path d="M112 59C112 63.4183 108.418 67 104 67C99.5817 67 96 63.4183 96 59C96 54.5817 99.5817 51 104 51C108.418 51 112 54.5817 112 59Z" fill="black"/>
<path fill-rule="evenodd" clip-rule="evenodd" d="M30.0001 84C30 84.0241 30 84.0483 30 84.0724C30 100.024 48.3563 112.955 71 112.955C93.6437 112.955 112 100.024 112 84.0724C112 84.0483 112 84.0241 112 84H30.0001Z" fill="#010101"/>
<path d="M48 94H93V98H48V94Z" fill="#FFFBFB"/>
</svg>
